# xmcd
#
# Track frame offsets:
#	150
#	25117
#	46278
#	69249
#	92387
#	107806
#	130765
#	149522
#	169706
#	192872
#
# Disc length: 2739 seconds
#
# Revision: 0
# Processed by: cddbd v1.5.2PL0 Copyright (c) Steve Scherf et al.
# Submitted via: Jack! The Knife 19 Blackthorn
#
DISCID=7e0ab10a
DTITLE=Moonspell - Extinct
DYEAR=2015
DGENRE=Metal
TTITLE0=Breathe (Until We Are No More)
TTITLE1=Extinct
TTITLE2=Medusalem
TTITLE3=Domina
TTITLE4=The Last Of Us
TTITLE5=Malignia
TTITLE6=Funeral Bloom
TTITLE7=A Dying Breed
TTITLE8=The Future Is Dark
TTITLE9=La Baphomette
EXTD=Jens Bogren
EXTT0=
EXTT1=
EXTT2=
EXTT3=
EXTT4=
EXTT5=
EXTT6=
EXTT7=
EXTT8=
EXTT9=
PLAYORDER=
